
<svg version="1.1" xmlns="http://www.w3.org/2000/svg" xmlns:xlink="http://www.w3.org/1999/xlink" preserveAspectRatio="xMidYMid meet" viewBox="568 306 121 164"><g data-item-type="text" data-item="Business" id="logo__item--business" class="logo__item">
                <g class="logo__item__inner" transform="translate(575.265625 468.06167533116206) scale(1 1) rotate(0 0 0)">
                    <text data-part-id="logo__item--business" dy="0" dominant-baseline="auto" alignment-baseline="auto" font-family="Montserrat" font-size="32px" fill="#1976d2" letter-spacing="0" font-weight="bold" font-style="normal" data-font-family="Montserrat" data-font-weight="bold" data-font-style="normal" data-ttf-url="/builder_assets/fontsttf/font-montserrat-bold-normal.ttf" data-font-filename="montserrat-bold-normal">HRNet</text>
                </g>
            </g><g data-item-type="image" data-item="Image" data-logo-item="" id="logo__item--logo_0" class="logo__item">
    <g class="logo__item__inner" transform="translate(560.0416462145738 298) scale(1.413993870305503 1.413993870305503) rotate(0 0 0)">
        
<g>
	<linearGradient id="SVGID_1_" gradientUnits="userSpaceOnUse" x1="53.8066" y1="21.895" x2="53.8066" y2="89.4977">
		<stop offset="0" style="stop-color:#7DBDDA"></stop>
		<stop offset="1" style="stop-color:#659AB2"></stop>
	</linearGradient>
	<path fill-rule="evenodd" clip-rule="evenodd" fill="#1976d2" d="M49.889,56.729h6.354c2.256,0,3.539-0.337,3.539-3.406   V50.25c0-2.093-0.614-3.394-2.828-3.394h-1.799c-1.984,0-2.447,0.759-2.447,2.389v3.015c0,1.047-0.858,1.905-1.907,1.905h-3.863   c-1.051,0-1.908-0.858-1.908-1.905v-2.807c0-2.591-2.017-2.389-3.755-2.389h-4.611c-1.505,0-2.736-1.229-2.736-2.735v-5.547   c0-1.505,1.231-2.737,2.736-2.737h5.549c1.505,0,2.737,1.232,2.737,2.737v4.544c0,2.005,0.433,3.163,2.953,3.163h1.493   c1.78,0,2.958-0.489,2.958-2.659v-2.836c0-1.065,0.871-1.935,1.935-1.935h3.927c1.062,0,1.933,0.87,1.933,1.935v2.646   c0,2.49,1.297,3.141,3.723,3.141h3.638c1.4,0,2.547,1.146,2.547,2.55v5.171c0,1.403-1.146,2.55-2.547,2.55h-3.93   c-2.933,0-3.562,1.042-3.562,3.537v6.268c0,1.36-1.112,2.474-2.476,2.474h-7.65c-1.359,0-2.476-1.113-2.476-2.474v-7.651   C47.413,57.844,48.53,56.729,49.889,56.729L49.889,56.729z M80.403,18.673c-0.942,0-1.714,0.772-1.714,1.715v4.253   c0,0.944,0.771,1.716,1.714,1.716h4.256c0.94,0,1.714-0.772,1.714-1.716v-4.253c0-0.943-0.773-1.715-1.714-1.715H80.403z    M43.66,72.229c-0.941,0-1.716,0.771-1.716,1.715v4.252c0,0.946,0.774,1.719,1.716,1.719h4.255c0.94,0,1.713-0.772,1.713-1.719   v-4.252c0-0.943-0.773-1.715-1.713-1.715H43.66z M22.955,49.964c-0.943,0-1.715,0.773-1.715,1.715v4.255   c0,0.942,0.772,1.716,1.715,1.716h4.256c0.942,0,1.714-0.773,1.714-1.716V51.68c0-0.942-0.772-1.715-1.714-1.715H22.955z    M43.505,27.547c-0.942,0-1.716,0.77-1.716,1.713v4.253c0,0.944,0.773,1.716,1.716,1.716h4.255c0.94,0,1.714-0.772,1.714-1.716   v-4.253c0-0.943-0.773-1.713-1.714-1.713H43.505z" data-part-id="logo__item--logo_0__0"></path>
	<linearGradient id="SVGID_2_" gradientUnits="userSpaceOnUse" x1="68.9863" y1="21.894" x2="68.9863" y2="89.4935">
		<stop offset="0" style="stop-color:#7DBDDA"></stop>
		<stop offset="1" style="stop-color:#659AB2"></stop>
	</linearGradient>
	<path fill-rule="evenodd" clip-rule="evenodd" fill="url(#SVGID_2_)" d="M73.135,27.167h-6.352c-2.258,0-3.541,0.339-3.541,3.406   v3.074c0,2.092,0.616,3.393,2.828,3.393h1.799c1.988,0,2.451-0.759,2.451-2.389v-3.015c0-1.05,0.854-1.906,1.905-1.906h3.865   c1.048,0,1.907,0.858,1.907,1.904v2.81c0,2.588,2.013,2.385,3.752,2.385l4.61,0.001c1.505,0,2.739,1.231,2.737,2.735l0.002,5.55   c-0.002,1.505-1.234,2.734-2.739,2.734h-5.549c-1.503,0-2.734-1.229-2.734-2.734v-4.546c0-2.006-0.434-3.165-2.956-3.165h-1.492   c-1.778,0.001-2.956,0.49-2.956,2.659L70.671,42.9c0.002,1.064-0.867,1.933-1.933,1.933h-3.925c-1.065,0-1.935-0.869-1.935-1.933   v-2.645c0-2.492-1.296-3.143-3.721-3.143h-3.637c-1.403,0-2.552-1.146-2.552-2.548v-5.172c0-1.406,1.148-2.552,2.552-2.552h3.929   c2.931,0.002,3.561-1.04,3.561-3.536v-6.265c0-1.362,1.115-2.479,2.474-2.479h7.65c1.363,0.002,2.479,1.117,2.479,2.479v7.649   C75.613,26.049,74.498,27.167,73.135,27.167L73.135,27.167z M54.846,23.202c0.94,0,1.709-0.771,1.709-1.714v-4.253   c0-0.944-0.769-1.716-1.709-1.716h-4.257c-0.944,0-1.715,0.772-1.715,1.716v4.253c0,0.943,0.771,1.714,1.713,1.714H54.846z" data-part-id="logo__item--logo_0__1"></path>
	<linearGradient id="SVGID_3_" gradientUnits="userSpaceOnUse" x1="26.4834" y1="21.8926" x2="26.4834" y2="89.497">
		<stop offset="0" style="stop-color:#7DBDDA"></stop>
		<stop offset="1" style="stop-color:#659AB2"></stop>
	</linearGradient>
	<path fill-rule="evenodd" clip-rule="evenodd" fill="#1976d2" d="M22.445,64.892v6.349c0,2.258,0.339,3.54,3.405,3.54h3.074   c2.092,0,3.393-0.615,3.393-2.827l-0.001-1.801c0.001-1.985-0.758-2.448-2.388-2.448h-3.015c-1.05,0-1.904-0.854-1.904-1.905   l-0.001-3.864c0.001-1.05,0.858-1.905,1.905-1.905h2.808c2.589,0,2.385-2.016,2.385-3.751l0.003-4.617   c0-1.501,1.23-2.737,2.735-2.737h5.548c1.507,0,2.736,1.235,2.736,2.737v5.549c0,1.507-1.229,2.735-2.736,2.737l-4.543-0.002   c-2.005,0.002-3.164,0.438-3.164,2.957v1.493c0,1.778,0.488,2.955,2.656,2.955h2.837c1.065,0,1.934,0.87,1.934,1.934v3.927   c0,1.063-0.868,1.934-1.934,1.934h-2.644c-2.489,0-3.143,1.3-3.143,3.722v3.636c0,1.402-1.146,2.553-2.548,2.553l-5.172-0.002   c-1.406,0.002-2.553-1.148-2.553-2.551v-3.929c0.003-2.931-1.04-3.558-3.535-3.558h-6.264c-1.364,0-2.479-1.116-2.479-2.479v-7.649   c0.002-1.36,1.115-2.474,2.479-2.474h7.648C21.327,62.411,22.445,63.527,22.445,64.892L22.445,64.892z M18.482,83.178   c0-0.94-0.773-1.711-1.715-1.711h-4.253c-0.944,0-1.714,0.772-1.717,1.711l0.003,4.256c-0.003,0.946,0.77,1.718,1.714,1.718h4.253   c0.942,0,1.715-0.771,1.715-1.714V83.178z" data-part-id="logo__item--logo_0__2"></path>
	<linearGradient id="SVGID_4_" gradientUnits="userSpaceOnUse" x1="71.5039" y1="21.894" x2="71.5039" y2="89.4975">
		<stop offset="0" style="stop-color:#7DBDDA"></stop>
		<stop offset="1" style="stop-color:#659AB2"></stop>
	</linearGradient>
	<path fill-rule="evenodd" clip-rule="evenodd" fill="url(#SVGID_4_)" d="M73.604,72.006h-6.349c-2.26,0-3.544,0.337-3.544,3.404   v3.073c0,2.091,0.617,3.393,2.828,3.393h1.802c1.986,0,2.446-0.76,2.446-2.388v-3.016c0-1.048,0.857-1.902,1.907-1.902l3.865-0.003   c1.044,0.003,1.905,0.857,1.905,1.905v2.808c0,2.589,2.016,2.388,3.752,2.388h4.612c1.505,0,2.739,1.229,2.739,2.734v5.552   c0,1.502-1.234,2.735-2.739,2.735l-5.544-0.001c-1.508,0-2.735-1.232-2.741-2.734l0.006-4.548c-0.006-2.004-0.438-3.163-2.96-3.163   H74.1c-1.78,0-2.958,0.488-2.958,2.658v2.837c0,1.064-0.869,1.935-1.934,1.935h-3.926c-1.064,0-1.937-0.87-1.937-1.935v-2.646   c0-2.489-1.296-3.141-3.719-3.14H55.99c-1.401,0-2.552-1.148-2.552-2.551l0.002-5.171c-0.002-1.407,1.148-2.551,2.55-2.551h3.929   c2.934,0,3.557-1.042,3.557-3.538v-6.264c0-1.362,1.119-2.478,2.48-2.478h7.647c1.363,0,2.477,1.115,2.477,2.478v7.649   C76.082,70.89,74.967,72.006,73.604,72.006L73.604,72.006z" data-part-id="logo__item--logo_0__3"></path>
	<linearGradient id="SVGID_5_" gradientUnits="userSpaceOnUse" x1="24.6152" y1="21.8945" x2="24.6152" y2="89.4982">
		<stop offset="0" style="stop-color:#7DBDDA"></stop>
		<stop offset="1" style="stop-color:#659AB2"></stop>
	</linearGradient>
	<path fill-rule="evenodd" clip-rule="evenodd" fill="url(#SVGID_5_)" d="M20.574,23.79v6.348c0,2.257,0.34,3.542,3.409,3.542h3.072   c2.093,0,3.395-0.615,3.395-2.826l-0.003-1.802c0.003-1.987-0.758-2.45-2.386-2.45h-3.015c-1.05,0-1.907-0.855-1.907-1.904v-3.866   c0-1.046,0.858-1.904,1.905-1.904h2.806c2.59,0,2.388-2.015,2.388-3.753l0.001-4.614c0-1.504,1.231-2.738,2.733-2.738h5.55   c1.503,0,2.736,1.234,2.736,2.738l-0.001,5.548c0,1.504-1.232,2.735-2.735,2.737l-4.546-0.002   c-2.004,0.002-3.163,0.435-3.163,2.957v1.492c0.002,1.78,0.489,2.958,2.657,2.958h2.839c1.065,0,1.934,0.87,1.934,1.933v3.927   c0,1.063-0.869,1.933-1.934,1.933h-2.647c-2.489,0-3.143,1.298-3.139,3.72v3.639c0,1.402-1.149,2.552-2.551,2.552L22.8,43.95   c-1.404,0.003-2.55-1.146-2.55-2.548v-3.929c0.003-2.932-1.04-3.558-3.538-3.558h-6.263c-1.361,0-2.479-1.116-2.479-2.478v-7.649   c0-1.362,1.118-2.475,2.479-2.475h7.648C19.459,21.309,20.574,22.425,20.574,23.79L20.574,23.79z M16.611,42.078   c0-0.942-0.772-1.712-1.712-1.712h-4.254c-0.946,0-1.715,0.772-1.715,1.712v4.255c0,0.945,0.77,1.718,1.715,1.718h4.254   c0.94,0,1.712-0.773,1.712-1.716V42.078z" data-part-id="logo__item--logo_0__4"></path>
</g>

    </g>
</g></svg>